<?xml version="1.0" encoding="UTF-8"?>
<svg id="a" data-name="Layer 1" xmlns="http://www.w3.org/2000/svg" viewBox="0 0 1920 1080">
  <path d="M362.89777,488.20007v-41.3909l-41.80293,21.41654v19.97436h-15.37318v30.54038h15.37318v38.27114c0,4.05178,.12754,7.73075,.39239,11.0271l41.41054-48.70962v-.58861h22.94699v-30.54038h-22.94699Z" style="fill: #aeb1c6;"/>
  <path d="M408.23255,596.44038v.57879h41.91083v-.57879h-41.91083Z" style="fill: #aeb1c6;"/>
  <path d="M652.27108,596.44038l.33353,.57879h12.22402v-.57879h-12.55755Zm-60.06049-71.57812v-36.66219h-26.49842l26.49842,36.66219Z" style="fill: #aeb1c6;"/>
  <polygon points="664.82863 597.01917 664.82863 596.44038 652.27108 596.44038 632.47331 561.97575 609.24177 596.44038 586.33406 630.43405 540.47935 630.43405 592.21059 555.87353 603.18865 540.0491 592.21059 524.86226 592.21059 488.20007 615.20663 488.20007 632.47331 518.53442 652.60461 488.20007 698.6065 488.20007 661.493 540.0491 701.27495 597.01917 664.82863 597.01917" style="fill: #aeb1c6;"/>
  <path d="M723.04466,537.63567c0-11.81193,.22568-23.23148,.68675-34.27822-10.23244,10.51693-15.34378,23.71219-15.34378,39.55632,0,16.02072,5.35661,29.2846,16.05018,39.78195-.93202-14.54913-1.39315-29.56915-1.39315-45.06005Z" style="fill: #aeb1c6;"/>
  <path d="M886.83254,446.80918c-2.9039,24.79139-4.34609,55.21405-4.34609,91.21889,0,21.69127,.56903,41.35168,1.69721,58.99111h14.63745v-150.20999h-11.98858Z" style="fill: #aeb1c6;"/>
  <rect x="1166.39531" y="488.20007" width="41.70485" height="108.81909" style="fill: #aeb1c6;"/>
  <rect x="1166.39531" y="446.80918" width="41.70485" height="28.38204" style="fill: #aeb1c6;"/>
  <path d="M1293.90358,485.74743c-19.05222,0-34.19002,5.37619-45.38382,16.13844-11.20374,10.75243-16.80555,24.43816-16.80555,41.02791,0,17.83565,6.62215,32.24742,19.87615,43.24512,.87328,.71615,1.76595,1.41267,2.68821,2.0602l22.88807-27.20476c-2.43301-4.49327-3.64951-10.56603-3.64951-18.1987,0-9.56533,1.98176-16.68777,5.93546-21.36744,3.9634-4.66985,8.98642-7.0146,15.06894-7.0146,5.73929,0,10.55621,2.30553,14.44129,6.91646,.26479,.30419,.51005,.62789,.75532,.96148l22.66257-26.93009c-10.1246-6.42593-22.94699-9.63401-38.47712-9.63401Z" style="fill: #aeb1c6;"/>
  <path d="M1484.18,496.03873c-1.24596-1.31459-2.59001-2.51151-4.03214-3.58083l-29.4416,34.64121c.90262,2.64887,1.35387,6.0139,1.35387,10.08526v59.8348h41.90101v-69.16469c0-14.34308-3.25706-24.94833-9.78113-31.81575Zm-92.39611,100.40165h28.81359v-33.90541l-28.81359,33.90541Z" style="fill: #aeb1c6;"/>
  <path d="M1629.25907,561.71085c0,6.2788-1.8935,12.38096-5.68025,18.31642-3.79681,5.9354-9.77143,10.66411-17.93379,14.17626-8.16248,3.51221-19.27784,5.2781-33.35602,5.2781-11.88073,0-21.71097-1.01046-29.50052-3.04126-5.24864-1.35387-9.57515-3.17862-12.96958-5.46451-8.43721-5.67055-13.84273-13.73483-16.23658-24.18314l32.93423-3.10012,8.45673-.79466c1.70703,4.91512,4.10088,8.43709,7.1813,10.55621,3.07072,2.11906,7.16178,3.17862,12.2927,3.17862,5.60181,0,9.93814-1.19692,13.00886-3.59071,2.39373-1.76589,3.59059-3.9831,3.59059-6.64173,0-3.00204-1.56955-5.32715-4.71883-6.95574-2.25636-1.16746-8.2311-2.59001-17.92385-4.29705-9.0063-1.56967-16.30532-3.07072-21.88749-4.49321-3.39443-.86334-6.16108-1.70709-8.2899-2.52133-5.64109-2.14852-10.38951-5.77845-14.245-10.89962-3.85562-5.1211-5.78839-10.95842-5.78839-17.50207,0-7.17154,2.07996-13.34244,6.24946-18.53223,4.1695-5.18978,9.90868-9.05516,17.21764-11.61571,1.51075-.52981,3.12952-1.0007,4.8562-1.42255,6.61233-1.60895,14.79433-2.41343,24.54613-2.41343,12.9794,0,22.55455,.99088,28.74497,2.97264,6.18072,1.9817,11.33128,5.05242,15.47133,9.2121,4.13034,4.1695,7.56405,9.81059,10.2913,16.91351l-39.54644,3.89478c-1.02034-3.48275-2.73719-6.05312-5.1211-7.69153-3.27682-2.17792-7.24034-3.2767-11.89056-3.2767-4.70913,0-8.14284,.83388-10.2913,2.51151-2.15828,1.66781-3.22772,3.69861-3.22772,6.08258,0,2.65863,1.36381,4.66985,4.09106,6.03348,2.73719,1.36369,8.68235,2.59001,17.83571,3.68879,13.86225,1.56973,24.1732,3.74765,30.94265,6.55347,6.75939,2.79606,11.93942,6.78897,15.52031,11.96894,3.59071,5.18978,5.37619,10.8898,5.37619,17.09986Z" style="fill: #aeb1c6;"/>
  <path d="M362.89777,518.74046v.58861l.50035-.58861h-.50035Zm0,0v.58861l.50035-.58861h-.50035Zm0,0v.58861l.50035-.58861h-.50035Zm246.34399,77.69992l-22.90771,33.99367h-45.85471l51.73124-74.56052V240.83574h-140.10509L159.24945,588.93525v132.2174H452.1055v108.14216h140.10509v-108.14216h72.61804v-124.71227h-55.58686Zm-104.64959-149.6312h41.70485v28.38204h-41.70485v-28.38204Zm-23.61411,74.38393c-4.91512-2.05044-8.80989-3.07072-11.67457-3.07072-5.46451,0-9.70269,2.25642-12.70473,6.75951-1.93272,2.85486-3.43371,6.81837-4.49327,11.89044v59.66804h-66.31959c-9.72233,2.0308-18.80695,3.04126-27.29308,3.04126-9.06498,0-16.04036-1.01046-20.93583-3.04126h-40.19398l24.12422-28.39186v-.00982l41.41054-48.70962,.50035-.58861,22.44664-26.41992,66.26073-77.96482v83.18407c2.2172-3.28658,4.49327-5.75881,6.79873-7.43645,3.99292-2.90396,8.92768-4.35591,14.80421-4.35591,6.15126,0,12.87149,1.91308,20.1804,5.73923l-12.91078,29.70645Zm23.61411-32.99303h41.70485v108.81909h-41.70485v-108.81909Zm-141.6944,30.54038v.58861l.50035-.58861h-.50035Zm0,0v.58861l.50035-.58861h-.50035Zm0,0v.58861l.50035-.58861h-.50035Z" style="fill: #153258;"/>
  <path d="M387.38504,596.09697c-.53963,.11778-1.06938,.2355-1.59913,.34341-9.72233,2.0308-18.80695,3.04126-27.29308,3.04126-9.06498,0-16.04036-1.01046-20.93583-3.04126-.72597-.29431-1.39309-.60825-2.02098-.95166-4.91512-2.66845-8.55481-6.70059-10.90938-12.12588-1.56967-3.61029-2.60959-8.71181-3.1394-15.31432v-.00982l41.41054-48.70962v37.95719c0,4.64045,.44149,7.71117,1.33423,9.20234,1.36369,2.32511,3.74765,3.48281,7.17154,3.48281,3.07072,0,7.37759-.8928,12.91078-2.65869l3.07072,28.78425Z" style="fill: #aeb1c6;"/>
  <path d="M493.88885,491.48666l-12.91078,29.70645c-4.91512-2.05044-8.80989-3.07072-11.67457-3.07072-5.46451,0-9.70269,2.25642-12.70473,6.75951-1.93272,2.85486-3.43371,6.81837-4.49327,11.89044-1.30483,6.23952-1.96212,14.1665-1.96212,23.77105v35.89699h-41.91083v-108.2403h39.03633v17.83565c1.58931-3.25712,3.19826-6.09234,4.83662-8.49595,2.2172-3.28658,4.49327-5.75881,6.79873-7.43645,3.99292-2.90396,8.92768-4.35591,14.80421-4.35591,6.15126,0,12.87149,1.91308,20.1804,5.73923Z" style="fill: #aeb1c6;"/>
  <rect x="504.59218" y="446.80918" width="41.70485" height="28.38204" style="fill: #aeb1c6;"/>
  <rect x="504.59218" y="488.20007" width="41.70485" height="108.81909" style="fill: #aeb1c6;"/>
  <path d="M1166.39531,488.20007h27.55781c-.34323-4.34609-.74549-8.69217-1.19686-13.00886h-26.36094v-28.38204h22.64281c-2.45265-15.59881-5.57247-30.97205-9.35935-46.12943-5.52337-22.62323-12.82239-42.43082-21.90701-59.40314-9.0748-16.9625-21.50487-33.14998-37.29008-48.5428-15.79515-15.39282-36.18148-27.88169-61.17897-37.49612-24.99731-9.59473-56.97001-14.40194-95.90826-14.40194-81.04536,0-141.36088,21.97575-180.95642,65.90756-35.35742,39.23262-54.91975,104.76737-58.70662,196.60433v.00982c-.46107,11.04674-.68675,22.46628-.68675,34.27822,0,15.49091,.46113,30.51092,1.39315,45.06005,1.75607,27.4893,5.17014,53.32056,10.24226,77.48405,7.76015,36.96631,18.61067,66.10379,32.56136,87.42225,19.2091,29.99093,43.81409,52.75152,73.80508,68.27189,30.00081,15.53019,69.33145,23.29034,118.01162,23.29034,86.82376,0,148.00273-24.33026,183.51703-73.02024,28.19564-38.63412,45.19735-95.00576,51.01509-169.12485h-27.19494v-108.81909Zm-124.18258,108.81909h-7.46585c-1.34405,25.51736-3.74765,45.84495-7.21076,60.99251-5.66073,24.73247-14.48045,42.82321-26.44938,54.26239-11.97876,11.44895-26.1158,17.16854-42.421,17.16854-24.74235,0-43.61792-13.47975-56.6366-40.44912-9.19252-19.03252-15.14756-49.69062-17.84547-91.97432-1.12818-17.63943-1.69721-37.29984-1.69721-58.99111,0-36.00483,1.44219-66.42749,4.34609-91.21889,2.953-25.39964,7.42663-44.91287,13.42089-58.55944,11.83157-26.96931,31.04073-40.45888,57.61766-40.45888,26.04712,0,45.5898,13.22466,58.60848,39.66422,9.68305,19.66047,15.77545,53.24211,18.24768,100.74499h7.48549v108.81909Zm73.31455,2.46247c-10.38939,0-18.04158-1.33423-22.95669-3.99292-4.91512-2.66845-8.55493-6.70059-10.9095-12.12588-2.35445-5.42523-3.53179-14.20572-3.53179-26.35124v-38.27114h-15.37324v-30.54038h15.37324v-19.97436l41.80293-21.41654v41.3909h22.94699v30.54038h-22.94699v38.5458c0,4.64045,.44143,7.71117,1.32453,9.20234,1.37339,2.32511,3.75741,3.48281,7.1813,3.48281,3.07072,0,7.37759-.8928,12.90096-2.65869l3.08042,28.78425c-10.31094,2.25648-19.94477,3.38467-28.89215,3.38467Z" style="fill: #153258;"/>
  <path d="M1042.21274,488.20007v108.81909h-38.93825v-17.61979c-5.80785,7.24022-11.66481,12.39079-17.57075,15.47127-5.906,3.07072-13.16586,4.61099-21.76971,4.61099-11.47841,0-20.48453-3.43371-26.99877-10.30112-6.52401-6.86742-9.79095-17.43339-9.79095-31.70785v-69.27259h41.91083v59.84462c0,6.8282,1.2656,11.67463,3.78693,14.54913,2.53109,2.86468,6.08252,4.29705,10.66411,4.29705,4.98374,0,9.06498-1.90326,12.2436-5.73923,3.1688-3.81628,4.75811-10.68369,4.75811-20.59243v-52.35914h41.70485Z" style="fill: #aeb1c6;"/>
  <path d="M1144.41944,596.09697c-10.31094,2.25648-19.94477,3.38467-28.89215,3.38467-10.38939,0-18.04158-1.33423-22.95669-3.99292-4.91512-2.66845-8.55493-6.70059-10.9095-12.12588-2.35445-5.42523-3.53179-14.20572-3.53179-26.35124v-38.27114h-15.37324v-30.54038h15.37324v-19.97436l41.80293-21.41654v41.3909h22.94699v30.54038h-22.94699v38.5458c0,4.64045,.44143,7.71117,1.32453,9.20234,1.37339,2.32511,3.75741,3.48281,7.1813,3.48281,3.07072,0,7.37759-.8928,12.90096-2.65869l3.08042,28.78425Z" style="fill: #aeb1c6;"/>
  <path d="M1586.3279,559.4446c-2.25636-1.16746-8.2311-2.59001-17.92385-4.29705-9.0063-1.56967-16.30532-3.07072-21.88749-4.49321v13.03826l8.45673-.79466c1.70703,4.91512,4.10088,8.43709,7.1813,10.55621,3.07072,2.11906,7.16178,3.17862,12.2927,3.17862,5.60181,0,9.93814-1.19692,13.00886-3.59071,2.39373-1.76589,3.59059-3.9831,3.59059-6.64173,0-3.00204-1.56955-5.32715-4.71883-6.95574Zm0,0c-2.25636-1.16746-8.2311-2.59001-17.92385-4.29705-9.0063-1.56967-16.30532-3.07072-21.88749-4.49321v13.03826l8.45673-.79466c1.70703,4.91512,4.10088,8.43709,7.1813,10.55621,3.07072,2.11906,7.16178,3.17862,12.2927,3.17862,5.60181,0,9.93814-1.19692,13.00886-3.59071,2.39373-1.76589,3.59059-3.9831,3.59059-6.64173,0-3.00204-1.56955-5.32715-4.71883-6.95574Zm-134.26778,36.99577v.57879h41.90101v-.57879h-41.90101Zm134.26778-36.99577c-2.25636-1.16746-8.2311-2.59001-17.92385-4.29705-9.0063-1.56967-16.30532-3.07072-21.88749-4.49321v13.03826l8.45673-.79466c1.70703,4.91512,4.10088,8.43709,7.1813,10.55621,3.07072,2.11906,7.16178,3.17862,12.2927,3.17862,5.60181,0,9.93814-1.19692,13.00886-3.59071,2.39373-1.76589,3.59059-3.9831,3.59059-6.64173,0-3.00204-1.56955-5.32715-4.71883-6.95574Zm0,0c-2.25636-1.16746-8.2311-2.59001-17.92385-4.29705-9.0063-1.56967-16.30532-3.07072-21.88749-4.49321v13.03826l8.45673-.79466c1.70703,4.91512,4.10088,8.43709,7.1813,10.55621,3.07072,2.11906,7.16178,3.17862,12.2927,3.17862,5.60181,0,9.93814-1.19692,13.00886-3.59071,2.39373-1.76589,3.59059-3.9831,3.59059-6.64173,0-3.00204-1.56955-5.32715-4.71883-6.95574Zm0,0c-2.25636-1.16746-8.2311-2.59001-17.92385-4.29705-9.0063-1.56967-16.30532-3.07072-21.88749-4.49321v13.03826l8.45673-.79466c1.70703,4.91512,4.10088,8.43709,7.1813,10.55621,3.07072,2.11906,7.16178,3.17862,12.2927,3.17862,5.60181,0,9.93814-1.19692,13.00886-3.59071,2.39373-1.76589,3.59059-3.9831,3.59059-6.64173,0-3.00204-1.56955-5.32715-4.71883-6.95574Z" style="fill: #153258;"/>
  <path d="M1686.63141,596.44038V240.83574h-140.11485l-214.13586,254.5457-22.66257,26.93009-32.55148,38.70281-22.88807,27.20476-.60825,.71615v132.2174h292.84623v108.14216h140.11485v-108.14216h72.61804v-124.71227h-72.61804Zm-63.05259-16.4131c-3.79681,5.9354-9.77143,10.66411-17.93379,14.17626-8.16248,3.51221-19.27784,5.2781-33.35602,5.2781-11.88073,0-21.71097-1.01046-29.50052-3.04126h-48.82735v.57879h-41.90101v-.57879h-60.27623l28.81359-33.90541,30.10878-35.43586,29.4416-34.64121,66.36869-78.10219v73.80514c6.61233-1.60895,14.79433-2.41343,24.54613-2.41343,12.9794,0,22.55455,.99088,28.74497,2.97264,6.18072,1.9817,11.33128,5.05242,15.47133,9.2121,4.13034,4.1695,7.56405,9.81059,10.2913,16.91351l-39.54644,3.89478c-1.02034-3.48275-2.73719-6.05312-5.1211-7.69153-3.27682-2.17792-7.24034-3.2767-11.89056-3.2767-4.70913,0-8.14284,.83388-10.2913,2.51151-2.15828,1.66781-3.22772,3.69861-3.22772,6.08258,0,2.65863,1.36381,4.66985,4.09106,6.03348,2.73719,1.36369,8.68235,2.59001,17.83571,3.68879,13.86225,1.56973,24.1732,3.74765,30.94265,6.55347,6.75939,2.79606,11.93942,6.78897,15.52031,11.96894,3.59071,5.18978,5.37619,10.8898,5.37619,17.09986,0,6.2788-1.8935,12.38096-5.68025,18.31642Z" style="fill: #153258;"/>
</svg>