<?xml version="1.0" encoding="UTF-8"?>
<svg id="Layer_1" data-name="Layer 1" xmlns="http://www.w3.org/2000/svg" viewBox="0 0 512 512">
  <path d="M376.78998,208.81L487.19,54.59998h-136.83002l-59.89001,90.21002-51.34998-90.21002H91.92999l111.45001,154.21002L54.31,423.70001h5.02002v6.62994c1.39996-2.87,2.83997-4.84998,4.32001-5.92999,1.48999-1.07996,3.32996-1.62,5.50995-1.62,2.29004,0,4.79004,.71002,7.51001,2.14001l-4.79999,11.04999c-1.83002-.76001-3.27997-1.14001-4.34998-1.14001-2.03003,0-3.60004,.84003-4.72003,2.51001-1.59998,2.37-2.39996,6.79004-2.39996,13.27002v13.57001h-15.60004v-26.78003l-11.38,16.41003c.73999-.16003,1.56-.38,2.48004-.67999l1.14996,10.70996c-3.83997,.83002-7.41998,1.25-10.75,1.25-.23999,0-.46997,0-.70001-.01001l-8.71997,12.57001H153.23999l11.40002-16.90997c-.26001-.19-.52002-.39001-.77002-.59998-4.92999-4.09003-7.40002-9.46002-7.40002-16.09003,0-6.16998,2.09003-11.26001,6.25-15.26001,4.17004-4.01001,9.80005-6.01001,16.89001-6.01001,3.60999,0,6.84003,.47003,9.66003,1.41003l101.19995-150.16003,59.89001,104.22003h144.76001l-118.33002-169.44Zm-196.94995,224.64001c-2.26001,0-4.13,.87994-5.60004,2.62-1.47998,1.73999-2.20996,4.38995-2.20996,7.94,0,1.88,.19995,3.5,.59998,4.87l10-14.84003c-.84998-.39996-1.78998-.58997-2.78998-.58997Z" style="fill: #afb1c6;"/>
  <path d="M36.47998,435.06v-11.35999h-8.53998v-15.40002l-15.56,7.96002v7.44H6.66998v11.35999h5.71002v14.22998c0,4.52002,.44,7.78998,1.32001,9.81s2.22998,3.52002,4.06,4.51001c1.71997,.92999,4.33002,1.41998,7.83997,1.46997l7.82001-11.26996c-.90997,.20996-1.67999,.31-2.32001,.31-1.26996,0-2.15997-.44-2.66998-1.29999-.33002-.56-.48999-1.70001-.48999-3.42004v-14.33997h8.53998Z" style="fill: #afb1c6;"/>
  <path d="M44.79999,423.70001v13.69995l9.51001-13.69995h-9.51001Z" style="fill: #afb1c6;"/>
  <path d="M80.655,408.29612h15.51454v10.55904h-15.51454v-10.55904Zm0,15.40018h15.51454v40.48266h-15.51454v-40.48266Z" style="fill: #153258;"/>
  <path d="M103.39254,423.6963h18.41161l6.4229,11.2833,7.49064-11.2833h17.11555l-13.81001,19.28835,14.80111,21.19431h-18.10665l-7.49064-13.03679-17.16498,25.46879h-17.0564l23.3277-33.62631-13.94082-19.28835Z" style="fill: #153258;"/>
  <path d="M37.04999,463.83997c-3.83997,.83002-7.41998,1.25-10.75,1.25-.23999,0-.46997,0-.70001-.01001l7.82001-11.26996c.73999-.16003,1.56-.38,2.48004-.67999l1.14996,10.70996Z" style="fill: #153258;"/>
  <path d="M76.66998,424.91998l-4.79999,11.04999c-1.83002-.76001-3.27997-1.14001-4.34998-1.14001-2.03003,0-3.60004,.84003-4.72003,2.51001-1.59998,2.37-2.39996,6.79004-2.39996,13.27002v13.57001h-15.60004v-26.78003l9.51001-13.69995h5.02002v6.62994c1.39996-2.87,2.83997-4.84998,4.32001-5.92999,1.48999-1.07996,3.32996-1.62,5.50995-1.62,2.29004,0,4.79004,.71002,7.51001,2.14001Z" style="fill: #153258;"/>
  <path d="M197.97998,429.82996c-2.28998-2.59998-5.19-4.48999-8.70996-5.63995l-6.64001,9.84998c.96002,.41003,1.82001,1.08002,2.58002,1.98999,1.44995,1.71002,2.17999,4.32001,2.17999,7.83002,0,3.76001-.72003,6.48999-2.16003,8.20001-1.42999,1.70001-3.26996,2.54999-5.5,2.54999-2.21997,0-4.04999-.85999-5.51001-2.59003-.69995-.81995-1.22998-1.87-1.58997-3.13995l-7.98999,11.85999c3.89996,2.90002,8.90997,4.34998,15.01001,4.34998,7.28998,0,13-1.97998,17.13-5.95996,4.12994-3.98004,6.19995-9.08002,6.19995-15.31,0-5.54004-1.66998-10.20001-5-13.99005Z" style="fill: #afb1c6;"/>
  <path d="M189.27002,424.19l-6.64001,9.84998c-.84998-.39996-1.78998-.58997-2.78998-.58997-2.26001,0-4.13,.87994-5.60004,2.62-1.47998,1.73999-2.20996,4.38995-2.20996,7.94,0,1.88,.19995,3.5,.59998,4.87l-7.98999,11.85999c-.26001-.19-.52002-.39001-.77002-.59998-4.92999-4.09003-7.40002-9.46002-7.40002-16.09003,0-6.16998,2.09003-11.26001,6.25-15.26001,4.17004-4.01001,9.80005-6.01001,16.89001-6.01001,3.60999,0,6.84003,.47003,9.66003,1.41003Z" style="fill: #153258;"/>
  <path d="M211.76401,408.29612h15.55266v55.88285h-15.55266v-55.88285Z" style="fill: #afb1c6;"/>
  <path d="M280.66359,464.17897h-14.48532v-6.55651c-2.16036,2.69403-4.33998,4.61243-6.53725,5.75601-2.19888,1.14358-4.89813,1.71537-8.10014,1.71537-4.26936,0-7.61783-1.27679-10.04423-3.83119-2.42719-2.55359-3.64059-6.48589-3.64059-11.79771v-25.76862h15.59078v22.26165c0,2.54155,.46987,4.3456,1.41041,5.41294,.93974,1.06734,2.26148,1.60101,3.96521,1.60101,1.8538,0,3.37215-.71102,4.55505-2.13468,1.1813-1.42285,1.77194-3.97684,1.77194-7.66197v-19.47895h15.51414v40.48266Z" style="fill: #afb1c6;"/>
  <path d="M309.57725,408.29612v15.40018h8.53872v11.35954h-8.53872v14.34247c0,1.7246,.16532,2.86617,.49515,3.42351,.50879,.8623,1.39797,1.29365,2.66915,1.29365,1.14278,0,2.74459-.32943,4.80223-.9895l1.14438,10.70991c-3.83761,.83862-7.42082,1.25794-10.75044,1.25794-3.86248,0-6.70899-.49515-8.53872-1.48505s-3.18276-2.493-4.0591-4.51091c-.87714-2.01791-1.31532-5.28574-1.31532-9.80347v-14.23855h-5.71789v-11.35954h5.71789v-7.43326l15.55266-7.96693Z" style="fill: #afb1c6;"/>
  <path d="M326.86334,408.29612h15.51494v10.55904h-15.51494v-10.55904Zm0,15.40018h15.51494v40.48266h-15.51494v-40.48266Z" style="fill: #afb1c6;"/>
  <path d="M351.16337,444.05199c0-6.17532,2.08332-11.26404,6.25156-15.26697,4.16744-4.00212,9.79625-6.00358,16.88643-6.00358,8.10616,0,14.23093,2.35096,18.37349,7.05206,3.32882,3.78705,4.99403,8.45004,4.99403,13.98977,0,6.22668-2.06566,11.32784-6.19458,15.30469-4.13052,3.97765-9.84119,5.96587-17.13441,5.96587-6.50596,0-11.76641-1.65157-15.78218-4.9555-4.92982-4.0912-7.39434-9.45358-7.39434-16.08633Zm15.55266-.03812c0,3.60889,.72948,6.27724,2.19166,8.00505,1.46057,1.72861,3.29752,2.59211,5.50763,2.59211,2.2366,0,4.07274-.85106,5.50843-2.55399,1.43569-1.70213,2.15394-4.43427,2.15394-8.19564,0-3.50697-.72386-6.11794-2.1732-7.83371-1.44773-1.71497-3.23974-2.57285-5.37442-2.57285-2.26228,0-4.12972,.87072-5.60393,2.61137-1.47341,1.74065-2.21012,4.39014-2.21012,7.94767Z" style="fill: #afb1c6;"/>
  <path d="M405.92109,423.6963h14.4476v6.59463c2.15956-2.69323,4.3456-4.61845,6.55651-5.77527,2.21092-1.15602,4.90414-1.73423,8.08128-1.73423,4.29424,0,7.65515,1.27679,10.08275,3.83119,2.42599,2.55359,3.64019,6.49913,3.64019,11.83583v25.73051h-15.59038v-22.26165c0-2.54075-.47107-4.33918-1.41081-5.39368-.94054-1.0545-2.26228-1.58215-3.9644-1.58215-1.88109,0-3.40586,.71183-4.57431,2.13468-1.16926,1.42365-1.75349,3.97765-1.75349,7.66197v19.44083h-15.51494v-40.48266Z" style="fill: #afb1c6;"/>
  <path d="M456.02746,452.93378l15.40018-1.44853c.63559,1.82972,1.52477,3.13902,2.66915,3.92628,1.14278,.78807,2.66755,1.1817,4.57431,1.1817,2.08332,0,3.69717-.44379,4.84075-1.33257,.88918-.65926,1.33377-1.48344,1.33377-2.47334,0-1.11629-.58423-1.97939-1.75268-2.5885-.83943-.43135-3.06318-.96382-6.67127-1.5986-5.38806-.93894-9.12936-1.80846-11.22632-2.60816-2.09616-.7993-3.86329-2.15153-5.29818-4.05549-1.43649-1.90396-2.15394-4.07475-2.15394-6.51197,0-2.66594,.77523-4.96313,2.32568-6.89317,1.54965-1.92924,3.68433-3.36974,6.40404-4.32152,2.71891-.95178,6.36552-1.42847,10.93983-1.42847,4.82791,0,8.39186,.36875,10.69266,1.10546,2.29919,.73751,4.218,1.88109,5.75561,3.43073,1.53761,1.55045,2.81441,3.64701,3.83119,6.28968l-14.71404,1.44853c-.38119-1.29606-1.01678-2.24904-1.90596-2.85895-1.21982-.81294-2.69403-1.21982-4.42184-1.21982-1.75349,0-3.03028,.31097-3.83119,.93292-.8001,.62154-1.20056,1.37631-1.20056,2.26428,0,.9899,.50799,1.73824,1.52477,2.24543,1.01598,.50759,3.2269,.96422,6.63275,1.37069,5.15854,.58343,8.99615,1.39597,11.51202,2.43723s4.4411,2.5259,5.77487,4.45514c1.33458,1.92964,2.00146,4.04947,2.00146,6.3595,0,2.33571-.70541,4.60802-2.11542,6.81653-1.41081,2.20851-3.63457,3.96681-6.67127,5.2741-3.0367,1.30689-7.17284,1.96094-12.40762,1.96094-7.39514,0-12.66202-1.0541-15.80064-3.1639-3.13862-2.109-5.15212-5.10798-6.0421-8.99615Z" style="fill: #afb1c6;"/>
</svg>